<svg id="Capa_5" data-name="Capa 5" xmlns="http://www.w3.org/2000/svg" viewBox="0 0 344.36 184.3"><defs><style>.cls-1{fill:#ab6c00;}.cls-2{fill:#3a86eb;}</style></defs><path class="cls-1" d="M93.57,137.28c0,6.9-11.24,12.5-25.11,12.5s-25.12-5.6-25.12-12.5c0-4.62,5-8.65,12.5-10.82,1.56,1.59,3,3,4.31,4.18-6.87,1.52-10.83,4.68-10.83,6.64,0,2.64,7.26,7.5,19.14,7.5s19.13-4.86,19.13-7.5c0-2-4-5.12-10.81-6.64,1.19-1.12,2.57-2.46,4.08-4l.19-.19C88.54,128.62,93.57,132.66,93.57,137.28Z"/><path class="cls-2" d="M103.21,61.71A35.44,35.44,0,0,0,68.87,33.15h-.48A35.37,35.37,0,0,0,33,68.57a57.84,57.84,0,0,0,5,22.78,79.53,79.53,0,0,0,4,8.05,117,117,0,0,0,20.47,25.72c2.34,2.23,4.18,3.82,5.18,4.66l.81.68h0s.27-.24.27-.24l.49-.44c1-.86,2.74-2.45,5-4.66h0c.77-.74,1.6-1.55,2.47-2.44a129.07,129.07,0,0,0,9.6-10.88c7.55-9.62,15-22.27,17-36.31a49.41,49.41,0,0,0,.48-6.91A35.3,35.3,0,0,0,103.21,61.71ZM68.46,81.62A14.08,14.08,0,1,1,82.53,67.54,14.08,14.08,0,0,1,68.46,81.62Z"/><path class="cls-2" d="M134.5,83H163V94.17H146.54v4.48H158.7V108.9H146.54v13.83h-12Z"/><path class="cls-2" d="M171.35,83h15.12c12.38,0,17.92,6.5,17.92,14.39a11.28,11.28,0,0,1-6.27,10.7l7.39,14.67H192.13L187.2,111h-3.86v11.7h-12Zm15,17.47c2.18,0,4.87-.16,4.87-3.52s-3.13-3.36-4.87-3.36h-3v6.88Z"/><path class="cls-2" d="M213.63,83h28.9v10.7H225.67v4.09h13.05V108H225.67V112h16.75v10.69H213.63Z"/><path class="cls-2" d="M251.77,83h28.89v10.7H263.81v4.09h13V108h-13V112h16.74v10.69H251.77Z"/><path class="cls-2" d="M134,42c0-4.82,3.34-7.28,6.9-7.28s6.93,2.5,6.93,7.28-3.38,7.36-6.93,7.36S134,46.91,134,42Zm10.77,0c0-3.3-2.22-4.62-3.87-4.62S137.1,38.71,137.1,42s2.1,4.74,3.84,4.74S144.81,45.35,144.81,42Z"/><path class="cls-2" d="M152.06,35h3v14.2h-3Z"/><path class="cls-2" d="M159.92,35H163V46.43h6.38v2.74h-9.43Z"/><path class="cls-2" d="M134.64,58h9.67v2.74h-6.63v3h5.09v2.66h-5.09v3.08h6.69v2.74h-9.73Z"/><path class="cls-2" d="M152.34,65,147.94,58h3.62l2.66,4.6L157,58h3.6L156.09,65l4.44,7.14H157l-2.77-4.52-2.8,4.52h-3.54Z"/><path class="cls-2" d="M168,60.65h-4.36V58h11.79v2.66H171V72.17h-3Z"/><path class="cls-2" d="M179.3,58h5.14c3.84,0,5.66,2.08,5.66,4.68a4,4,0,0,1-2.5,3.82l2.78,5.7H187l-2.22-5h-2.44v5h-3Zm5.12,6.5c1.28,0,2.4-.5,2.4-1.92s-1.18-1.84-2.4-1.84h-2.08v3.76Z"/><path class="cls-2" d="M202.82,69.41h-5.08l-.92,2.76h-3.24L198.64,58h3.2L207,72.17h-3.18Zm-4.26-2.5H202l-1.73-5Z"/><path class="cls-2" d="M209.32,65.11c0-5,3.3-7.38,6.7-7.38s5.93,2,6.31,5.2h-3.08a3.15,3.15,0,0,0-3.19-2.52c-1.62,0-3.66,1.16-3.66,4.7,0,3.34,2.06,4.64,3.7,4.64a3.17,3.17,0,0,0,3.16-2.6h3.11C222,70.83,219,72.39,216,72.39S209.32,70.27,209.32,65.11Z"/><path class="cls-2" d="M229.62,60.65h-4.36V58H237v2.66h-4.38V72.17h-3Z"/><path class="cls-2" d="M240.94,58h3v14.2h-3Z"/><path class="cls-2" d="M248.2,65c0-4.82,3.34-7.28,6.9-7.28S262,60.23,262,65s-3.39,7.36-6.93,7.36S248.2,69.91,248.2,65ZM259,65c0-3.3-2.23-4.62-3.87-4.62s-3.84,1.32-3.84,4.62,2.1,4.74,3.84,4.74S259,68.35,259,65Z"/><path class="cls-2" d="M266.22,58h2.9l6.26,8.6V58h3.07v14.2h-2.81l-6.38-8.94v8.94h-3Z"/><path class="cls-2" d="M134.59,143.82l6.38-8.56h-6.18v-2.82h10.12v2.66l-6.44,8.62h6.58v2.92H134.59Z"/><path class="cls-2" d="M148.65,139.48c0-4.82,3.34-7.28,6.9-7.28s6.92,2.5,6.92,7.28-3.38,7.36-6.92,7.36S148.65,144.38,148.65,139.48Zm10.76,0c0-3.3-2.22-4.62-3.86-4.62s-3.84,1.32-3.84,4.62,2.1,4.74,3.84,4.74S159.41,142.82,159.41,139.48Z"/><path class="cls-2" d="M166.67,132.44h2.9l6.26,8.6v-8.6h3.06v14.2h-2.8l-6.38-8.94v8.94h-3Z"/><path class="cls-2" d="M183.69,132.44h9.66v2.74h-6.62v3h5.08v2.66h-5.08v3.08h6.68v2.74h-9.72Z"/></svg>