<svg id="Capa_5" data-name="Capa 5" xmlns="http://www.w3.org/2000/svg" viewBox="0 0 344.36 184.3"><defs><style>.cls-1,.cls-10,.cls-11,.cls-4,.cls-5,.cls-6,.cls-7,.cls-8,.cls-9{fill:#4f1b00;}.cls-2{fill:#3a86eb;}.cls-3{fill:#ab6c00;}.cls-4{opacity:0.85;}.cls-5{opacity:0.75;}.cls-6{opacity:0.65;}.cls-7{opacity:0.55;}.cls-8{opacity:0.45;}.cls-9{opacity:0.35;}.cls-10{opacity:0.15;}.cls-11{opacity:0.07;}</style></defs><path class="cls-1" d="M93.57,137.28c0,6.9-11.24,12.5-25.11,12.5s-25.12-5.6-25.12-12.5c0-4.62,5-8.65,12.5-10.82,1.56,1.59,3,3,4.31,4.18-6.87,1.52-10.83,4.68-10.83,6.64,0,2.64,7.26,7.5,19.14,7.5s19.13-4.86,19.13-7.5c0-2-4-5.12-10.81-6.64,1.19-1.12,2.57-2.46,4.08-4l.19-.19C88.54,128.62,93.57,132.66,93.57,137.28Z"/><path class="cls-2" d="M103.21,61.71A35.44,35.44,0,0,0,68.87,33.15h-.48A35.37,35.37,0,0,0,33,68.57a57.84,57.84,0,0,0,5,22.78,79.53,79.53,0,0,0,4,8.05,117,117,0,0,0,20.47,25.72c2.34,2.23,4.18,3.82,5.18,4.66l.81.68h0s.27-.24.27-.24l.49-.44c1-.86,2.74-2.45,5-4.66h0c.77-.74,1.6-1.55,2.47-2.44a129.07,129.07,0,0,0,9.6-10.88c7.55-9.62,15-22.27,17-36.31a49.41,49.41,0,0,0,.48-6.91A35.3,35.3,0,0,0,103.21,61.71ZM68.46,81.62A14.08,14.08,0,1,1,82.53,67.54,14.08,14.08,0,0,1,68.46,81.62Z"/><path class="cls-2" d="M135,69.46h24.14V78.9H145.18v3.79h10.29v8.69H145.18v11.71H135Z"/><path class="cls-2" d="M166.19,69.41H179c10.48,0,15.18,5.5,15.18,12.19a9.54,9.54,0,0,1-5.31,9.06l6.26,12.43H183.79l-4.17-9.91h-3.28v9.91H166.19Zm12.72,14.8c1.85,0,4.12-.14,4.12-3s-2.65-2.84-4.12-2.84h-2.57v5.83Z"/><path class="cls-2" d="M202,69.41h24.48v9.06H212.21v3.46h11v8.64h-11V94h14.18v9.06H202Z"/><path class="cls-2" d="M234.31,69.41h24.48v9.06H244.51v3.46h11.06v8.64H244.51V94H258.7v9.06H234.31Z"/><path class="cls-2" d="M134.21,40a5.19,5.19,0,1,1,10.36,0,5.12,5.12,0,0,1-5.19,5.52C136.73,45.51,134.21,43.67,134.21,40Zm8.07,0c0-2.47-1.67-3.46-2.9-3.46s-2.88,1-2.88,3.46,1.58,3.56,2.88,3.56S142.28,42.5,142.28,40Z"/><path class="cls-2" d="M147.87,34.71h2.28V45.36h-2.28Z"/><path class="cls-2" d="M153.92,34.71h2.28v8.6H161v2h-7.06Z"/><path class="cls-2" d="M134.66,51.71h7.24v2.06h-5V56h3.81v2h-3.81v2.31h5v2h-7.29Z"/><path class="cls-2" d="M148.08,57l-3.3-5.3h2.72l2,3.45,2-3.45h2.7L150.88,57l3.34,5.35h-2.66L149.49,59l-2.1,3.39h-2.65Z"/><path class="cls-2" d="M160,53.72h-3.27v-2h8.84v2h-3.29v8.64H160Z"/><path class="cls-2" d="M168.6,51.71h3.86c2.88,0,4.24,1.56,4.24,3.51a3,3,0,0,1-1.88,2.87l2.09,4.27h-2.53l-1.67-3.73h-1.83v3.73H168.6Zm3.84,4.88c1,0,1.8-.38,1.8-1.44s-.88-1.38-1.8-1.38h-1.56v2.82Z"/><path class="cls-2" d="M186.39,60.29h-3.81l-.69,2.07h-2.43l3.79-10.65h2.4l3.84,10.65h-2.38Zm-3.19-1.87h2.54l-1.28-3.77Z"/><path class="cls-2" d="M191.41,57.07c0-3.75,2.48-5.54,5-5.54a4.43,4.43,0,0,1,4.72,3.9h-2.3a2.37,2.37,0,0,0-2.39-1.89c-1.22,0-2.75.87-2.75,3.53,0,2.5,1.55,3.48,2.78,3.48a2.38,2.38,0,0,0,2.37-1.95h2.33c-.29,2.76-2.54,3.93-4.76,3.93S191.41,60.94,191.41,57.07Z"/><path class="cls-2" d="M206.79,53.72h-3.27v-2h8.84v2h-3.29v8.64h-2.28Z"/><path class="cls-2" d="M215.43,51.71h2.28V62.36h-2.28Z"/><path class="cls-2" d="M221,57a5.19,5.19,0,1,1,10.36,0,5.12,5.12,0,0,1-5.19,5.52C223.55,62.51,221,60.67,221,57Zm8.07,0c0-2.47-1.67-3.46-2.9-3.46s-2.88,1-2.88,3.46,1.57,3.56,2.88,3.56S229.1,59.5,229.1,57Z"/><path class="cls-2" d="M234.69,51.71h2.18l4.69,6.45V51.71h2.3V62.36h-2.11L237,55.66v6.7h-2.28Z"/><path class="cls-2" d="M135.1,118.26l4.78-6.42h-4.63v-2.11h7.59v2L138,118.19H143v2.19H135.1Z"/><path class="cls-2" d="M145.8,115a5.19,5.19,0,1,1,10.36,0,5.13,5.13,0,0,1-5.19,5.52C148.32,120.53,145.8,118.68,145.8,115Zm8.07,0c0-2.48-1.67-3.47-2.9-3.47s-2.88,1-2.88,3.47,1.58,3.55,2.88,3.55S153.87,117.51,153.87,115Z"/><path class="cls-2" d="M159.46,109.73h2.17l4.7,6.45v-6.45h2.3v10.65h-2.1l-4.79-6.71v6.71h-2.28Z"/><path class="cls-2" d="M172.38,109.73h7.24v2h-5V114h3.81v2h-3.81v2.31h5v2.06h-7.29Z"/><path class="cls-2" d="M135.78,137.37h1.76L135.86,148H134.1Z"/><path class="cls-2" d="M141.3,137.37H143l4.14,7.55,1.2-7.55h1.76L148.37,148h-1.59l-4.2-7.66L141.36,148h-1.74Z"/><path class="cls-2" d="M160.22,139h-3l.24-1.57h7.86L165,139h-3L160.55,148h-1.76Z"/><path class="cls-2" d="M168.47,137.37h3.73c2.4,0,3.71,1.46,3.41,3.32a3.33,3.33,0,0,1-2.43,2.86l1.44,4.47h-1.94l-1.23-4.08h-2.28l-.64,4.08h-1.74Zm2.94,5a2.14,2.14,0,0,0,2.35-1.71c.18-1.14-.64-1.66-1.83-1.66h-2l-.54,3.37Z"/><path class="cls-2" d="M184.62,145.52h-4.24l-1.31,2.5h-1.92l5.66-10.65h1.83L187,148h-1.79Zm-3.46-1.5h3.15l-.92-4.31Z"/><path class="cls-2" d="M191.55,137.37h1.65l4.14,7.55,1.2-7.55h1.76L198.62,148H197l-4.2-7.66L191.61,148h-1.74Z"/><path class="cls-2" d="M202,145.91l1.46-.92a2.73,2.73,0,0,0,2.47,1.55c1.31,0,2-.57,2.16-1.55s-.54-1.44-1.93-1.63c-1.59-.2-3.11-1.1-2.79-3.06.28-1.79,1.71-3.08,4.14-3.08a3.47,3.47,0,0,1,3.19,1.73l-1.53,1a2.28,2.28,0,0,0-2.07-1.08c-1.12,0-1.84.5-2,1.35s.54,1.35,1.94,1.5c1.75.17,3.25,1.05,2.91,3.24s-1.91,3.21-4.25,3.21A4.09,4.09,0,0,1,202,145.91Z"/><path class="cls-2" d="M214.4,137.37h1.75L214.47,148h-1.75Z"/><path class="cls-2" d="M222.14,139h-3l.24-1.57h7.86L227,139h-3L222.47,148h-1.76Z"/><path class="cls-2" d="M230.38,137.37h1.76L230.46,148h-1.75Z"/><path class="cls-2" d="M234.63,142.64c.57-3.65,2.48-5.43,5.43-5.43,2.63,0,4.31,1.81,3.72,5.43s-2.48,5.52-5.44,5.52C235.73,148.16,234,146.45,234.63,142.64Zm7.41,0c.42-2.73-.49-3.84-2.24-3.84s-3,1.11-3.42,3.84.41,4,2.2,4S241.59,145.43,242,142.64Z"/><path class="cls-2" d="M247.92,137.37h1.65l4.14,7.55,1.2-7.55h1.75L255,148h-1.59l-4.19-7.66L248,148h-1.74Z"/><rect class="cls-3" x="259.72" y="124.72" width="10.96" height="3.07" transform="translate(166.95 -150.54) rotate(45)"/><rect class="cls-3" x="259.69" y="130.31" width="11" height="3.07" transform="translate(545.94 37.56) rotate(135)"/><rect class="cls-1" x="134.61" y="127.37" width="3.65" height="3.47"/><rect class="cls-3" x="145.08" y="127.37" width="4.88" height="3.47"/><rect class="cls-3" x="156.77" y="127.37" width="6.11" height="3.47"/><rect class="cls-3" x="169.7" y="127.37" width="7.34" height="3.47"/><rect class="cls-3" x="183.86" y="127.37" width="8.57" height="3.47"/><rect class="cls-3" x="199.25" y="127.37" width="9.8" height="3.47"/><rect class="cls-3" x="215.87" y="127.37" width="11.03" height="3.47"/><rect class="cls-3" x="233.72" y="127.37" width="12.27" height="3.47"/><rect class="cls-3" x="252.81" y="127.37" width="13.5" height="3.47"/><rect class="cls-4" x="145.08" y="127.37" width="4.88" height="3.47"/><rect class="cls-5" x="156.77" y="127.37" width="6.11" height="3.47"/><rect class="cls-6" x="169.7" y="127.37" width="7.34" height="3.47"/><rect class="cls-7" x="183.86" y="127.37" width="8.57" height="3.47"/><rect class="cls-8" x="199.25" y="127.37" width="9.8" height="3.47"/><rect class="cls-9" x="215.87" y="127.37" width="11.03" height="3.47"/><rect class="cls-10" x="233.72" y="127.37" width="12.27" height="3.47"/><rect class="cls-11" x="252.81" y="127.37" width="13.5" height="3.47"/></svg>