<svg id="Capa_5" data-name="Capa 5" xmlns="http://www.w3.org/2000/svg" viewBox="0 0 344.36 184.3"><defs><style>.cls-1{fill:#45d881;}.cls-2{fill:#3a86eb;}</style></defs><path class="cls-1" d="M96.66,138.77c0,6.9-11.25,12.5-25.12,12.5s-25.11-5.6-25.11-12.5c0-3.65,3.14-6.94,8.14-9.22,1.32,1.46,2.62,2.83,3.85,4.08-3.86,1.6-6,3.7-6,5.14,0,2.64,7.26,7.5,19.13,7.5s19.14-4.86,19.14-7.5c0-1.44-2.16-3.55-6.05-5.16,1.32-1.34,2.6-2.7,3.86-4.07C93.51,131.82,96.66,135.11,96.66,138.77Z"/><path class="cls-2" d="M93.15,79.45A4.39,4.39,0,0,1,96.26,72h.19a5.84,5.84,0,0,1,10.61-1.87,2.79,2.79,0,0,1,1.66-.53,2.87,2.87,0,0,1,1.37.34A38.49,38.49,0,0,0,72,33h-.52A38.48,38.48,0,0,0,44.34,44.25c-.32.32-.64.65-1,1a5.07,5.07,0,0,1,3.16,2.2A4.18,4.18,0,0,1,52.42,50a3.93,3.93,0,0,1,0,7.85H35.47A38.56,38.56,0,0,0,33,71.62a61.52,61.52,0,0,0,4.31,22A3.9,3.9,0,0,1,40.33,92a6.22,6.22,0,0,1,10.61-.72,4.68,4.68,0,0,1,1.68-.3,5,5,0,0,1,4.66,3.28h1.17a3.93,3.93,0,1,1,0,7.85H41.14c.53,1,1.09,2,1.66,3a121.6,121.6,0,0,0,16.89,22.54c1.47,1.57,2.87,3,4.16,4.26,4.45,4.36,7.61,6.88,7.78,7h0a3.45,3.45,0,0,1,.29-.27c.88-.82,3.62-3.17,7.27-6.78l1.45-1.45c.86-.88,1.76-1.81,2.7-2.81,2.45-2.62,5.11-5.66,7.76-9l.34-.44H84.21a3.88,3.88,0,1,1,0-7.76h1.43a4.44,4.44,0,0,1,4.22-3,4.34,4.34,0,0,1,.63,0,5.49,5.49,0,0,1,9-1,75.19,75.19,0,0,0,9.84-25.73H96.26A4.38,4.38,0,0,1,93.15,79.45ZM71.54,86.11A14.08,14.08,0,1,1,85.62,72,14.07,14.07,0,0,1,71.54,86.11Z"/><path class="cls-2" d="M136.37,67.64h32.57V80.38H150.13V85.5H164V97.21H150.13V113H136.37Z"/><path class="cls-2" d="M179.76,67.58H197c14.14,0,20.47,7.42,20.47,16.45,0,4.16-1.28,9.08-7.16,12.22L218.8,113H203.5l-5.63-13.38h-4.42V113H179.76Zm17.15,20c2.49,0,5.56-.2,5.56-4s-3.58-3.84-5.56-3.84h-3.46v7.88Z"/><path class="cls-2" d="M229.36,67.58h33V79.8H243.12v4.67H258V96.12H243.12v4.67h19.13V113H229.36Z"/><path class="cls-2" d="M274.22,67.58h33V79.8H288v4.67h14.91V96.12H288v4.67h19.13V113H274.22Z"/><path class="cls-2" d="M136.53,142l10.21-13.7h-9.89v-4.51H153v4.25l-10.3,13.8h10.52v4.67H136.53Z"/><path class="cls-2" d="M159,135.07c0-7.71,5.34-11.65,11-11.65s11.08,4,11.08,11.65-5.41,11.78-11.08,11.78S159,142.91,159,135.07Zm17.21,0c0-5.28-3.55-7.39-6.18-7.39s-6.14,2.11-6.14,7.39,3.36,7.59,6.14,7.59S176.24,140.42,176.24,135.07Z"/><path class="cls-2" d="M187.86,123.81h4.64l10,13.76V123.81h4.9v22.72h-4.48l-10.21-14.31v14.31h-4.86Z"/><path class="cls-2" d="M215.09,123.81h15.45v4.38H220V133h8.13v4.26H220v4.92h10.69v4.39H215.09Z"/><path class="cls-2" d="M136,34.35h15.55v4.54H140.9v4.9h8v4.26h-8v9H136Z"/><path class="cls-2" d="M156.71,45.58c0-7.71,5.34-11.65,11-11.65s11.07,4,11.07,11.65-5.41,11.78-11.07,11.78S156.71,53.42,156.71,45.58Zm17.21,0c0-5.28-3.55-7.39-6.17-7.39s-6.15,2.11-6.15,7.39,3.36,7.58,6.15,7.58S173.92,50.93,173.92,45.58Z"/><path class="cls-2" d="M183.55,52.69l4-2.53A6.25,6.25,0,0,0,192.48,53c2.43,0,3.46-1,3.46-2.47,0-1.82-1.19-2.43-4-2.75-3.55-.38-7.84-2.3-7.84-6.82,0-4,3.14-7,8.19-7a8.94,8.94,0,0,1,7.94,4.48l-3.91,2.33A4.74,4.74,0,0,0,192,38.38c-2.08,0-3.23.87-3.23,2.31s1.63,2.17,4.51,2.43c4.13.32,7.68,2.33,7.68,7.16s-3.9,7.11-8.41,7.11C188.71,57.39,185.6,56.11,183.55,52.69Z"/><path class="cls-2" d="M206.15,52.69l4-2.53A6.25,6.25,0,0,0,215.07,53c2.44,0,3.46-1,3.46-2.47,0-1.82-1.19-2.43-4-2.75-3.55-.38-7.84-2.3-7.84-6.82,0-4,3.14-7,8.19-7a8.94,8.94,0,0,1,7.94,4.48L219,40.81a4.77,4.77,0,0,0-4.36-2.43c-2.08,0-3.23.87-3.23,2.31s1.63,2.17,4.51,2.43c4.13.32,7.68,2.33,7.68,7.16s-3.9,7.11-8.41,7.11C211.3,57.39,208.19,56.11,206.15,52.69Z"/><path class="cls-2" d="M230.08,34.32H235V57h-4.87Z"/><path class="cls-2" d="M242.66,34.32h4.86V52.65h10.21V57H242.66Z"/></svg>