<svg id="Capa_5" data-name="Capa 5" xmlns="http://www.w3.org/2000/svg" viewBox="0 0 344.36 184.3"><defs><style>.cls-1{fill:#45d881;}.cls-2{fill:#3a86eb;}</style></defs><path class="cls-1" d="M93.57,137.28c0,6.9-11.24,12.5-25.11,12.5s-25.12-5.6-25.12-12.5c0-4.62,5-8.65,12.5-10.82,1.56,1.59,3,3,4.31,4.18-6.87,1.52-10.83,4.68-10.83,6.64,0,2.64,7.26,7.5,19.14,7.5s19.13-4.86,19.13-7.5c0-2-4-5.12-10.81-6.64,1.19-1.12,2.57-2.46,4.08-4l.19-.19C88.54,128.62,93.57,132.66,93.57,137.28Z"/><path class="cls-2" d="M103.21,61.71A35.44,35.44,0,0,0,68.87,33.15h-.48A35.37,35.37,0,0,0,33,68.57a57.84,57.84,0,0,0,5,22.78,79.53,79.53,0,0,0,4,8.05,117,117,0,0,0,20.47,25.72c2.34,2.23,4.18,3.82,5.18,4.66l.81.68h0s.27-.24.27-.24l.49-.44c1-.86,2.74-2.45,5-4.66h0c.77-.74,1.6-1.55,2.47-2.44a129.07,129.07,0,0,0,9.6-10.88c7.55-9.62,15-22.27,17-36.31a49.41,49.41,0,0,0,.48-6.91A35.3,35.3,0,0,0,103.21,61.71ZM68.46,81.62A14.08,14.08,0,1,1,82.53,67.54,14.08,14.08,0,0,1,68.46,81.62Z"/><path class="cls-2" d="M136.37,67.64h32.57V80.38H150.12V85.5H164V97.21H150.12V113H136.37Z"/><path class="cls-2" d="M179.76,67.58H197c14.14,0,20.47,7.42,20.47,16.45,0,4.16-1.28,9.08-7.16,12.22L218.79,113H203.5l-5.63-13.38h-4.42V113H179.76Zm17.15,20c2.49,0,5.57-.2,5.57-4s-3.59-3.84-5.57-3.84h-3.46v7.88Z"/><path class="cls-2" d="M229.36,67.58h33V79.8H243.12v4.67H258V96.12H243.12v4.67h19.13V113H229.36Z"/><path class="cls-2" d="M274.22,67.58h33V79.8H288v4.67h14.91V96.12H288v4.67h19.13V113H274.22Z"/><path class="cls-2" d="M136.53,142l10.21-13.7h-9.89v-4.51H153v4.25l-10.3,13.8h10.53v4.67H136.53Z"/><path class="cls-2" d="M159,135.07c0-7.71,5.34-11.64,11-11.64s11.08,4,11.08,11.64-5.41,11.78-11.08,11.78S159,142.91,159,135.07Zm17.21,0c0-5.28-3.55-7.39-6.18-7.39s-6.14,2.11-6.14,7.39,3.36,7.59,6.14,7.59S176.24,140.42,176.24,135.07Z"/><path class="cls-2" d="M187.86,123.81h4.64l10,13.76V123.81h4.9v22.72h-4.48l-10.21-14.31v14.31h-4.86Z"/><path class="cls-2" d="M215.09,123.81h15.45v4.38H220V133h8.13v4.26H220v4.92h10.69v4.39H215.09Z"/><path class="cls-2" d="M136.18,45.74c0-8,5.28-11.8,10.72-11.8s9.47,3.16,10.08,8.31h-4.93a5,5,0,0,0-5.08-4c-2.59,0-5.86,1.86-5.86,7.52,0,5.35,3.3,7.43,5.92,7.43A5.1,5.1,0,0,0,152.09,49h5c-.61,5.88-5.41,8.38-10.15,8.38C142,57.39,136.18,54,136.18,45.74Z"/><path class="cls-2" d="M162.1,45.58c0-7.71,5.35-11.64,11-11.64s11.07,4,11.07,11.64-5.4,11.78-11.07,11.78S162.1,53.42,162.1,45.58Zm17.22,0c0-5.28-3.55-7.39-6.18-7.39S167,40.3,167,45.58s3.36,7.59,6.14,7.59S179.32,50.93,179.32,45.58Z"/><path class="cls-2" d="M202.13,52.62H194L192.54,57h-5.19l8.1-22.72h5.12L208.76,57h-5.09Zm-6.81-4h5.44l-2.75-8Z"/><path class="cls-2" d="M214.14,34.32H219V52.65h10.21V57H214.14Z"/></svg>