<svg id="Capa_5" data-name="Capa 5" xmlns="http://www.w3.org/2000/svg" viewBox="0 0 344.36 184.3"><defs><style>.cls-1,.cls-10,.cls-3,.cls-4,.cls-5,.cls-6,.cls-7,.cls-8,.cls-9{fill:#3a86eb;}.cls-2{fill:#45d881;}.cls-3{opacity:0.85;}.cls-4{opacity:0.75;}.cls-5{opacity:0.65;}.cls-6{opacity:0.55;}.cls-7{opacity:0.45;}.cls-8{opacity:0.35;}.cls-9{opacity:0.15;}.cls-10{opacity:0.07;}</style></defs><path class="cls-1" d="M93.57,137.28c0,6.9-11.24,12.5-25.11,12.5s-25.12-5.6-25.12-12.5c0-4.62,5-8.65,12.5-10.82,1.56,1.59,3,3,4.31,4.18-6.87,1.52-10.83,4.68-10.83,6.64,0,2.64,7.26,7.5,19.14,7.5s19.13-4.86,19.13-7.5c0-2-4-5.12-10.81-6.64,1.19-1.12,2.57-2.46,4.08-4l.19-.19C88.54,128.62,93.57,132.66,93.57,137.28Z"/><path class="cls-1" d="M103.21,61.71A35.44,35.44,0,0,0,68.87,33.15h-.48A35.37,35.37,0,0,0,33,68.57a57.84,57.84,0,0,0,5,22.78,79.53,79.53,0,0,0,4,8.05,117,117,0,0,0,20.47,25.72c2.34,2.23,4.18,3.82,5.18,4.66l.81.68h0s.27-.24.27-.24l.49-.44c1-.86,2.74-2.45,5-4.66h0c.77-.74,1.6-1.55,2.47-2.44a129.07,129.07,0,0,0,9.6-10.88c7.55-9.62,15-22.27,17-36.31a49.41,49.41,0,0,0,.48-6.91A35.3,35.3,0,0,0,103.21,61.71ZM68.46,81.62A14.08,14.08,0,1,1,82.53,67.54,14.08,14.08,0,0,1,68.46,81.62Z"/><path class="cls-1" d="M136.55,54.68h27.57V65.46H148.19v4.33H160v9.92H148.19V93.09H136.55Z"/><path class="cls-1" d="M173.28,54.63H187.9c12,0,17.34,6.28,17.34,13.92a10.9,10.9,0,0,1-6.07,10.34l7.15,14.2H193.37l-4.76-11.33h-3.74V93.09H173.28Zm14.51,16.9c2.12,0,4.72-.17,4.72-3.42s-3-3.25-4.72-3.25h-2.92v6.67Z"/><path class="cls-1" d="M215.26,54.63h28V65h-16.3v4h12.62v9.85H226.91v4H243.1V93.09H215.26Z"/><path class="cls-1" d="M253.24,54.63h27.95V65H264.88v4H277.5v9.85H264.88v4h16.2V93.09H253.24Z"/><path class="cls-1" d="M136.4,112.08l6.7-9h-6.48v-3h10.62v2.79l-6.76,9h6.91V115h-11Z"/><path class="cls-1" d="M151.17,107.53c0-5.06,3.5-7.65,7.24-7.65s7.27,2.63,7.27,7.65-3.55,7.72-7.27,7.72S151.17,112.67,151.17,107.53Zm11.29,0c0-3.47-2.33-4.85-4.05-4.85s-4,1.38-4,4.85,2.2,5,4,5S162.46,111,162.46,107.53Z"/><path class="cls-1" d="M170.09,100.14h3l6.58,9v-9h3.21V115H180l-6.7-9.38V115h-3.19Z"/><path class="cls-1" d="M188,100.14H198.1V103h-6.95v3.13h5.33v2.79h-5.33v3.24h7V115H188Z"/><path class="cls-1" d="M136.33,40.5c0-5.12,3.49-7.66,7-7.68,3.36,0,6.11,1.68,6.61,5.23h-3.23a3.1,3.1,0,0,0-3.38-2.46c-1.89,0-3.85,1.66-3.85,4.91,0,3.45,2,4.94,3.85,4.94a3.19,3.19,0,0,0,3.46-3.11h-3.19v-2.5h6.42v1.53c-.21,5.1-3.38,6.83-6.69,6.83S136.33,46,136.33,40.5Z"/><path class="cls-1" d="M162.35,45.06H157l-1,2.9h-3.4L158,33.05h3.36L166.7,48h-3.34Zm-4.47-2.63h3.57l-1.81-5.27Z"/><path class="cls-1" d="M169.55,45.1l2.65-1.66a4.09,4.09,0,0,0,3.21,1.87c1.6,0,2.27-.65,2.27-1.62,0-1.19-.78-1.59-2.6-1.8-2.33-.25-5.15-1.51-5.15-4.47,0-2.61,2.06-4.58,5.38-4.58a5.83,5.83,0,0,1,5.2,2.94L178,37.31a3.11,3.11,0,0,0-2.85-1.6c-1.37,0-2.12.57-2.12,1.52s1.07,1.42,3,1.59c2.71.21,5,1.54,5,4.71s-2.56,4.66-5.52,4.66A6.32,6.32,0,0,1,169.55,45.1Z"/><path class="cls-1" d="M138.85,135.56h1.87l-1.79,11.37h-1.87Z"/><path class="cls-1" d="M144.72,135.56h1.76l4.42,8.05,1.28-8.05h1.87l-1.79,11.37h-1.7l-4.48-8.18-1.29,8.18h-1.86Z"/><path class="cls-1" d="M164.87,137.26h-3.24l.26-1.68h8.39l-.27,1.68h-3.25l-1.54,9.67h-1.87Z"/><path class="cls-1" d="M173.65,135.56h4c2.56,0,4,1.55,3.63,3.54a3.55,3.55,0,0,1-2.59,3.06l1.53,4.77h-2.06l-1.31-4.36H174.4l-.68,4.36h-1.86Zm3.14,5.32a2.29,2.29,0,0,0,2.51-1.83c.19-1.22-.69-1.78-2-1.78h-2.1l-.57,3.61Z"/><path class="cls-1" d="M190.87,144.25h-4.53L185,146.93h-2l6-11.37h2l2.46,11.37h-1.9Zm-3.7-1.6h3.36l-1-4.59Z"/><path class="cls-1" d="M198.24,135.56H200l4.42,8.05,1.28-8.05h1.87l-1.79,11.37h-1.7l-4.48-8.18-1.29,8.18h-1.86Z"/><path class="cls-1" d="M209.39,144.67l1.56-1a2.92,2.92,0,0,0,2.64,1.65c1.39,0,2.13-.61,2.3-1.65s-.57-1.53-2.06-1.74c-1.7-.21-3.32-1.17-3-3.27.3-1.9,1.83-3.28,4.42-3.28a3.72,3.72,0,0,1,3.41,1.84l-1.63,1a2.44,2.44,0,0,0-2.21-1.15c-1.2,0-2,.53-2.12,1.44s.58,1.44,2.07,1.6c1.87.18,3.47,1.12,3.1,3.46s-2,3.42-4.53,3.42A4.36,4.36,0,0,1,209.39,144.67Z"/><path class="cls-1" d="M222.58,135.56h1.87l-1.79,11.37h-1.87Z"/><path class="cls-1" d="M230.82,137.26h-3.23l.25-1.68h8.39l-.27,1.68h-3.25l-1.54,9.67H229.3Z"/><path class="cls-1" d="M239.6,135.56h1.87l-1.79,11.37h-1.87Z"/><path class="cls-1" d="M244.11,141.18c.61-3.89,2.64-5.8,5.8-5.8,2.8,0,4.59,1.94,4,5.8s-2.64,5.89-5.81,5.89C245.28,147.07,243.47,145.25,244.11,141.18Zm7.91,0c.45-2.91-.53-4.1-2.38-4.1s-3.19,1.19-3.65,4.1.43,4.23,2.33,4.23S251.54,144.16,252,141.18Z"/><path class="cls-1" d="M258.27,135.56H260l4.42,8.05,1.28-8.05h1.88l-1.8,11.37h-1.69l-4.49-8.18-1.29,8.18h-1.86Z"/><rect class="cls-2" x="272.43" y="119.98" width="15.76" height="3.07" transform="translate(168.03 -162.62) rotate(45)"/><rect class="cls-2" x="272.43" y="128.95" width="15.76" height="3.07" transform="translate(570.79 24.55) rotate(135)"/><rect class="cls-1" x="136.08" y="124.33" width="3.47" height="3.47"/><rect class="cls-2" x="146.04" y="124.33" width="4.64" height="3.47"/><rect class="cls-2" x="157.17" y="124.33" width="5.81" height="3.47"/><rect class="cls-2" x="169.47" y="124.33" width="6.99" height="3.47"/><rect class="cls-2" x="182.94" y="124.33" width="8.16" height="3.47"/><rect class="cls-2" x="197.58" y="124.33" width="9.33" height="3.47"/><rect class="cls-2" x="213.39" y="124.33" width="10.5" height="3.47"/><rect class="cls-2" x="230.37" y="124.33" width="11.67" height="3.47"/><rect class="cls-2" x="248.53" y="124.33" width="12.84" height="3.47"/><rect class="cls-3" x="146.04" y="124.33" width="4.64" height="3.47"/><rect class="cls-4" x="157.17" y="124.33" width="5.81" height="3.47"/><rect class="cls-5" x="169.47" y="124.33" width="6.99" height="3.47"/><rect class="cls-6" x="182.94" y="124.33" width="8.16" height="3.47"/><rect class="cls-7" x="197.58" y="124.33" width="9.33" height="3.47"/><rect class="cls-8" x="213.39" y="124.33" width="10.5" height="3.47"/><rect class="cls-9" x="230.37" y="124.33" width="11.67" height="3.47"/><rect class="cls-10" x="248.53" y="124.33" width="12.84" height="3.47"/><rect class="cls-2" x="267.85" y="124.33" width="15.18" height="3.47"/></svg>