<svg id="Capa_5" data-name="Capa 5" xmlns="http://www.w3.org/2000/svg" viewBox="0 0 344.36 184.3"><defs><style>.cls-1{fill:#ab6c00;}.cls-2{fill:#fff;}.cls-3{fill:#3a86eb;}</style></defs><path class="cls-1" d="M96.66,138.77c0,6.9-11.25,12.5-25.12,12.5s-25.11-5.6-25.11-12.5c0-3.65,3.14-6.94,8.14-9.22,1.32,1.46,2.62,2.83,3.85,4.08-3.86,1.6-6,3.7-6,5.14,0,2.64,7.26,7.5,19.13,7.5s19.14-4.86,19.14-7.5c0-1.44-2.16-3.55-6.05-5.16,1.32-1.34,2.6-2.7,3.86-4.07C93.51,131.82,96.66,135.11,96.66,138.77Z"/><path class="cls-2" d="M85.62,72A14.08,14.08,0,1,1,71.54,58,14.07,14.07,0,0,1,85.62,72Z"/><path class="cls-3" d="M71.54,58A14.08,14.08,0,1,0,85.62,72,14.07,14.07,0,0,0,71.54,58Z"/><path class="cls-3" d="M93.15,79.45A4.39,4.39,0,0,1,96.26,72h.19a5.84,5.84,0,0,1,10.61-1.87,2.79,2.79,0,0,1,1.66-.53,2.87,2.87,0,0,1,1.37.34A38.49,38.49,0,0,0,72,33h-.52A38.48,38.48,0,0,0,44.34,44.25c-.32.32-.64.65-1,1a5.07,5.07,0,0,1,3.16,2.2A4.18,4.18,0,0,1,52.42,50a3.93,3.93,0,0,1,0,7.85H35.47A38.56,38.56,0,0,0,33,71.62a61.52,61.52,0,0,0,4.31,22A3.9,3.9,0,0,1,40.33,92a6.22,6.22,0,0,1,10.61-.72,4.68,4.68,0,0,1,1.68-.3,5,5,0,0,1,4.66,3.28h1.17a3.93,3.93,0,1,1,0,7.85H41.14c.53,1,1.09,2,1.66,3a121.6,121.6,0,0,0,16.89,22.54c1.47,1.57,2.87,3,4.16,4.26,4.45,4.36,7.61,6.88,7.78,7h0a3.45,3.45,0,0,1,.29-.27c.88-.82,3.62-3.17,7.27-6.78l1.45-1.45c.86-.88,1.76-1.81,2.7-2.81,2.45-2.62,5.11-5.66,7.76-9l.34-.44H84.21a3.88,3.88,0,1,1,0-7.76h1.43a4.44,4.44,0,0,1,4.22-3,4.34,4.34,0,0,1,.63,0,5.49,5.49,0,0,1,9-1,75.19,75.19,0,0,0,9.84-25.73H96.26A4.38,4.38,0,0,1,93.15,79.45ZM71.54,86.11A14.08,14.08,0,1,1,85.62,72,14.07,14.07,0,0,1,71.54,86.11Z"/><path class="cls-2" d="M85.62,72A14.08,14.08,0,1,1,71.54,58,14.07,14.07,0,0,1,85.62,72Z"/><path class="cls-3" d="M134.5,83H163V94.17H146.55v4.48H158.7V108.9H146.55v13.83H134.5Z"/><path class="cls-3" d="M171.35,83h15.12c12.38,0,17.92,6.5,17.92,14.39a11.28,11.28,0,0,1-6.27,10.7l7.39,14.67H192.13L187.2,111h-3.86v11.7h-12Zm15,17.47c2.19,0,4.87-.16,4.87-3.52s-3.13-3.36-4.87-3.36h-3v6.88Z"/><path class="cls-3" d="M213.63,83h28.9v10.7H225.67v4.09h13.05V108H225.67V112h16.75v10.69H213.63Z"/><path class="cls-3" d="M251.77,83h28.89v10.7H263.81v4.09h13.05V108H263.81V112h16.74v10.69H251.77Z"/><path class="cls-3" d="M134.64,35h9.73v2.84h-6.69v3.06h5v2.66h-5v5.62h-3Z"/><path class="cls-3" d="M148,42c0-4.82,3.34-7.28,6.9-7.28s6.93,2.5,6.93,7.28-3.38,7.36-6.93,7.36S148,46.91,148,42Zm10.77,0c0-3.3-2.22-4.62-3.87-4.62S151,38.71,151,42s2.1,4.74,3.84,4.74S158.73,45.35,158.73,42Z"/><path class="cls-3" d="M165.14,46.45l2.52-1.58a3.9,3.9,0,0,0,3.06,1.78c1.53,0,2.16-.62,2.16-1.54,0-1.14-.74-1.52-2.48-1.72-2.22-.24-4.9-1.44-4.9-4.26,0-2.48,2-4.36,5.12-4.36a5.59,5.59,0,0,1,5,2.8L173.14,39a3,3,0,0,0-2.72-1.52c-1.3,0-2,.54-2,1.44s1,1.36,2.82,1.52c2.58.2,4.81,1.46,4.81,4.48s-2.44,4.44-5.27,4.44A6,6,0,0,1,165.14,46.45Z"/><path class="cls-3" d="M179.26,46.45l2.52-1.58a3.9,3.9,0,0,0,3.06,1.78c1.53,0,2.17-.62,2.17-1.54,0-1.14-.75-1.52-2.49-1.72-2.22-.24-4.9-1.44-4.9-4.26,0-2.48,2-4.36,5.12-4.36a5.59,5.59,0,0,1,5,2.8L187.26,39a3,3,0,0,0-2.72-1.52c-1.3,0-2,.54-2,1.44s1,1.36,2.82,1.52c2.58.2,4.81,1.46,4.81,4.48s-2.44,4.44-5.27,4.44A6,6,0,0,1,179.26,46.45Z"/><path class="cls-3" d="M194.22,35h3v14.2h-3Z"/><path class="cls-3" d="M202.08,35h3V46.43h6.39v2.74h-9.43Z"/><path class="cls-3" d="M134.64,58h9.67v2.74h-6.63v3h5.09v2.66h-5.09v3.08h6.69v2.74h-9.73Z"/><path class="cls-3" d="M152.34,65,147.94,58h3.62l2.66,4.6L157,58h3.6L156.09,65l4.44,7.14H157l-2.77-4.52-2.8,4.52h-3.54Z"/><path class="cls-3" d="M168,60.65h-4.36V58h11.79v2.66H171V72.17h-3Z"/><path class="cls-3" d="M179.3,58h5.14c3.84,0,5.66,2.08,5.66,4.68a4,4,0,0,1-2.5,3.82l2.78,5.7H187l-2.22-5h-2.44v5h-3Zm5.12,6.5c1.28,0,2.4-.5,2.4-1.92s-1.18-1.84-2.4-1.84h-2.08v3.76Z"/><path class="cls-3" d="M202.82,69.41h-5.08l-.92,2.76h-3.24L198.64,58h3.2L207,72.17h-3.18Zm-4.26-2.5H202l-1.73-5Z"/><path class="cls-3" d="M209.32,65.11c0-5,3.3-7.38,6.7-7.38s5.93,2,6.31,5.2h-3.08a3.15,3.15,0,0,0-3.19-2.52c-1.62,0-3.66,1.16-3.66,4.7,0,3.34,2.06,4.64,3.7,4.64a3.17,3.17,0,0,0,3.16-2.6h3.11C222,70.83,219,72.39,216,72.39S209.32,70.27,209.32,65.11Z"/><path class="cls-3" d="M229.62,60.65h-4.36V58H237v2.66h-4.38V72.17h-3Z"/><path class="cls-3" d="M240.94,58h3v14.2h-3Z"/><path class="cls-3" d="M248.2,65c0-4.82,3.34-7.28,6.9-7.28S262,60.23,262,65s-3.39,7.36-6.93,7.36S248.2,69.91,248.2,65ZM259,65c0-3.3-2.23-4.62-3.87-4.62s-3.84,1.32-3.84,4.62,2.1,4.74,3.84,4.74S259,68.35,259,65Z"/><path class="cls-3" d="M266.22,58h2.9l6.26,8.6V58h3.07v14.2h-2.81l-6.38-8.94v8.94h-3Z"/><path class="cls-3" d="M134.59,143.82l6.38-8.56h-6.18v-2.82h10.12v2.66l-6.44,8.62h6.58v2.92H134.59Z"/><path class="cls-3" d="M148.65,139.48c0-4.82,3.34-7.28,6.9-7.28s6.92,2.5,6.92,7.28-3.38,7.36-6.92,7.36S148.65,144.38,148.65,139.48Zm10.76,0c0-3.3-2.22-4.62-3.86-4.62s-3.84,1.32-3.84,4.62,2.1,4.74,3.84,4.74S159.41,142.82,159.41,139.48Z"/><path class="cls-3" d="M166.67,132.44h2.9l6.26,8.6v-8.6h3.06v14.2h-2.8l-6.38-8.94v8.94h-3Z"/><path class="cls-3" d="M183.69,132.44h9.66v2.74h-6.62v3h5.08v2.66h-5.08v3.08h6.68v2.74h-9.72Z"/></svg>